<?xml version="1.0" encoding="utf-8"?>
<!-- Generator: Adobe Illustrator 24.3.0, SVG Export Plug-In . SVG Version: 6.00 Build 0)  -->
<svg version="1.1" id="Capa_1" xmlns="http://www.w3.org/2000/svg" xmlns:xlink="http://www.w3.org/1999/xlink" x="0px" y="0px"
	 viewBox="0 0 263.6 88.2" style="enable-background:new 0 0 263.6 88.2;" xml:space="preserve">
<style type="text/css">
	.st0{fill:yellow;}
	.st1{fill:none;}
</style>
<circle class="st0" cx="45.6" cy="44.1" r="42.6"/>
<path class="st0" d="M72,18.3c-0.1-0.1-0.4-0.2-0.5-0.1c-2.3,1.2-4.5,2.6-6.6,4.2c1.2-2,2.2-4.1,3.1-6.2c0.1-0.2,0-0.4-0.1-0.5
	c-0.1-0.1-0.4-0.2-0.6-0.1c-4.3,2.3-8.3,5.2-11.8,8.6c-2.2,2.2-4.2,4.6-6,7.2l-1.2,0.5l-4.4-4.4l-0.1,0.7c-0.6,3.5-0.8,7.1-0.7,10.7
	c-1.5,0.5-2.8,1.3-4,2.3c-0.1,0-0.1,0-0.2,0c-0.7,0-1.2,0.5-1.2,1.2c0,0.2,0,0.4,0.1,0.6c-0.1,0.3-0.2,0.6-0.2,0.9
	c-0.2,2.3,0,3.8,6.1,8.9c-1.4,3.2-3.1,6.2-5.1,9c-0.2,0.3-0.5,0.5-0.8,0.5c-0.4,0-0.7-0.2-1-0.4c-1.1-1.1-3.2-4.2-6-8.8l-0.1-0.2
	c-0.4-0.4-0.8-0.8-1.3-1.2c0.2-1,0.3-2,0.4-3.1h0.1H30c1-0.1,1.9-0.5,2.7-1.2c0.2-0.3,0.4-0.6,0.6-0.9c0.3-0.8,0.5-1.6,0.4-2.5
	c0-0.1-0.1-0.1-0.2-0.1c-0.1,0-0.1,0-0.2,0.1c-1,0.9-1.9,1.8-2.7,2.8l-0.2,0.3c-0.2,0.3-0.5,0.6-0.8,0.9c0-0.6,0-1.3-0.1-1.9
	c0.7-0.4,1.4-0.9,1.9-1.5l0.2-0.2c0.9-1.1,1.5-2.4,1.7-3.9c0.2-1.4,0.8-2.7,1.7-3.8c0-0.1,0-0.2-0.1-0.2c-0.1-0.1-0.1-0.1-0.2-0.1
	c-0.4,0.2-0.8,0.5-1.2,0.7c-1.2,0.5-2.2,1.3-2.8,2.4c-0.2,0.5-0.4,1.1-0.4,1.7v0.3c-0.2,1.3-0.5,2.5-1,3.7c-0.1-0.8-0.2-1.7-0.4-2.6
	c-0.1-0.6-0.3-1.2-0.4-1.9c0.9-0.9,1.7-2.1,2.1-3.4c0.3-1.4,0.1-2.9-0.6-4.2l-0.3-0.5l-0.1,0.5c-0.1,0.3-0.1,0.5-0.2,0.7
	c-0.3,1-0.4,2-0.3,3c0,1-0.3,2.1-0.8,3c-0.4-1.5-0.9-2.9-1.5-4.3c0.5-0.8,0.9-1.6,1.2-2.5c0.2-1.1,0.4-2.2,0.4-3.3
	c0-0.7,0-1.3-0.1-2c-0.1-0.1-0.2-0.1-0.2-0.1c-0.1,0-0.2,0-0.2,0.1c-0.2,0.7-0.4,1.4-0.9,2c-0.3,0.5-0.6,1.1-0.8,1.7
	c-0.1,0.9-0.1,1.8,0,2.6c-0.7-1.6-1.6-3-2.7-4.3c-0.1-0.9-0.1-1.7,0-2.6c0.4,0.2,0.9,0.3,1.3,0.3c0.3,0,0.6-0.2,0.8-0.5
	c0.4-0.5,0.4-1.3-0.1-1.7c-0.4-0.4-0.9-0.5-1.5-0.4c-0.5,0.2-0.9,0.9-1,1.9C23.1,27,23,27.8,23,28.5L22.7,28
	c-0.8-1.2-1.4-2.2-1.9-3.1s-0.5-1.4-0.2-1.8c0.4-0.4,0.9-0.6,1.5-0.4c0.4,0.1,0.7,0.3,0.8,0.7c0.1,0.3,0,0.5-0.2,0.7
	c-0.4,0.3-0.8,0.4-1.2,0.4v0.5c0.5,0.1,1-0.1,1.4-0.4c0.4-0.3,0.7-0.8,0.5-1.3c-0.1-0.5-0.6-0.9-1.1-1c-0.7-0.2-1.5,0.1-2,0.6
	c-0.3,0.4-0.5,1.1,0.2,2.3c0.5,0.9,1.1,1.9,1.9,3.1l0.4,0.6c-0.8-0.5-1.6-1.1-2.2-1.8c-0.8-0.8-1.5-0.7-1.8-0.6
	c-0.5,0.2-0.8,0.7-0.9,1.2c-0.1,0.5,0.1,1,0.6,1.3c0.4,0.3,0.8,0.4,1.3,0.2c0.4-0.2,0.8-0.5,0.9-1L20.1,28c-0.1,0.3-0.3,0.6-0.6,0.7
	c-0.3,0.1-0.6,0-0.9-0.2c-0.3-0.2-0.4-0.5-0.3-0.8c0-0.3,0.2-0.7,0.6-0.8c0.4-0.1,0.8,0,1.3,0.5c0.9,0.9,2,1.7,3.1,2.2
	c1.6,2.1,2.8,4.3,3.6,6.8c-0.5-0.8-1.2-1.4-2.1-1.7c-1.4-0.4-4.5-1-4.7-1c-0.1,0-0.1,0.1-0.2,0.2c0,0.1,0,0.2,0,0.2
	c0,0,2.1,1.7,4,2.8c1.1,0.7,2.3,1.1,3.5,1.1c0.4,1.2,0.7,2.4,1,3.6c-0.5-0.9-1.3-1.6-2.3-2c-1.1-0.4-2.1-0.8-3.1-1.4L22.6,38
	l0.2,0.6c0.4,1.4,1.3,2.6,2.5,3.4c1,0.7,2.2,1,3.4,1.1c0.2,1.3,0.4,2.6,0.5,3.9c-0.5-0.9-1.3-1.7-2.2-2.2c-1.4-0.7-2.9-1.2-4.5-1.7
	l-0.6-0.2l0.3,0.5c0.9,1.4,2.1,2.7,3.5,3.7c1,0.6,2.2,1,3.4,1.1c0,0.9-0.1,1.8-0.3,2.7L28.8,51h-0.1h-0.1c-0.5-0.1-1,0.2-1.3,0.7
	c-0.4,0-0.8,0.2-1.1,0.6C26,52.6,26,53,26.2,53.3c-0.2,0.2-0.3,0.4-0.4,0.6c-0.1,0.4,0,0.7,0.2,1l0.1,0.1h0.1l0.5,0.2l-0.4,0.5
	l-1.1-0.9h0H25c-0.4-0.1-0.9,0-1.2,0.3c-0.5-0.1-1,0-1.3,0.4c-0.3,0.3-0.4,0.9-0.2,1.3c-0.3,0.2-0.4,0.6-0.4,0.9
	c0,0.4,0.1,0.7,0.4,0.9c0.5,0.2,1.2,0.5,1.6,0.8c-1.5,3.2-2,6.9-1.5,10.4c0.4,2.6,1.2,5.2,2.5,7.5l0.4-0.2c-1.3-2.3-2.1-4.8-2.5-7.3
	c-0.6-3.4-0.1-7,1.4-10.1l0.2,0.1c0,0.1,0.3,0.5,0.5,1c3.1,5.4,6.8,11.7,8.7,12.2c0.3,0.1,0.6,0.1,0.8,0.1c1,0,2-0.3,2.9-0.6
	c0.2,1.2,0.3,2.3,0.5,3.3c-1.2,0-4.2,0.4-4.8,4.4c-0.2,1.6-0.2,3.3,0,4.9c9.1,2.7,18.9,2.3,27.8-1.2c-0.7-4.7-2.1-9.2-4.1-13.5
	c-1.5-3.1-2.6-6.4-3.3-9.8l0,0c-0.2-0.9-0.3-1.8-0.2-2.7c0.1-1,0.5-2,1-2.8c0.3-0.6,0.7-1.2,1-1.9c1.3-2.3,2.7-4.7,2.8-7.1
	c0.1-1.3,0-2.7-0.4-4c1.7-2.5,3.2-5.2,4.5-8l0,0c0.9-1,1.8-2,2.6-3.1c2.9-3.7,5.2-7.7,7-12C72.2,18.7,72.2,18.4,72,18.3z M30.9,41.2
	v-0.3c0-0.5,0.2-1.1,0.4-1.6c0.6-1,1.6-1.7,2.6-2.2l0.1-0.1c-0.5,0.9-0.8,2-1,3c-0.2,1.3-0.8,2.6-1.6,3.7L31.2,44
	c-0.4,0.4-0.8,0.8-1.3,1.2C30.4,43.9,30.7,42.5,30.9,41.2z M29.6,36.5c-0.1-1,0-1.9,0.3-2.9v-0.1c0.5,1,0.6,2.2,0.3,3.3
	c-0.3,0.7-0.6,1.4-1.1,2C29.4,38.1,29.6,37.3,29.6,36.5z M24.3,24.9c0.4-0.1,0.7,0,1,0.3c0.3,0.3,0.3,0.7,0,1.1
	c-0.1,0.2-0.3,0.3-0.5,0.3c-0.4,0-0.8-0.1-1.2-0.3C23.7,25.5,23.9,25,24.3,24.9z M24.2,36.6C23,35.9,21.8,35,21,34.4
	c1.1,0.2,2.8,0.5,3.6,0.8s2,1.7,2.5,2.4C26.1,37.5,25.1,37.1,24.2,36.6z M26,46.9c-1.2-0.8-2.2-1.8-3-3c1.3,0.4,2.5,0.9,3.7,1.4
	c1,0.6,1.9,1.5,2.3,2.6C28,47.8,26.9,47.5,26,46.9z M34.5,67.4c-2.9-3.2-5.4-6.8-7.4-10.6c0,0-0.1-0.1-0.6-0.6l0.5-0.6
	c0.5,0.2,0.9,0.5,1.4,0.8c0.3,0.4,0.5,0.9,0.7,1.4c0.6,1.4,1.3,2.8,2.1,4.2c1.2,2.1,2.5,4.1,4,6C35,67.8,34.7,67.6,34.5,67.4
	L34.5,67.4z"/>
<path d="M72,18.3c-0.1-0.1-0.4-0.2-0.5-0.1c-2.3,1.2-4.5,2.6-6.6,4.2c1.2-2,2.2-4.1,3.1-6.2c0.1-0.2,0-0.4-0.1-0.5
	c-0.1-0.1-0.4-0.2-0.6-0.1c-4.3,2.3-8.3,5.2-11.8,8.6c-2.2,2.2-4.2,4.6-6,7.2l-1.2,0.5l-4.4-4.4l-0.1,0.7c-0.6,3.5-0.8,7.1-0.7,10.7
	c-1.5,0.5-2.8,1.3-4,2.3c-0.1,0-0.1,0-0.2,0c-0.7,0-1.2,0.5-1.2,1.2c0,0.2,0,0.4,0.1,0.6c-0.1,0.3-0.2,0.6-0.2,0.9
	c-0.2,2.3,0,3.8,6.1,8.9c-1.4,3.2-3.1,6.2-5.1,9c-0.2,0.3-0.5,0.5-0.8,0.5c-0.4,0-0.7-0.2-1-0.4c-1.1-1.1-3.2-4.2-6-8.8l-0.1-0.2
	c-0.4-0.4-0.8-0.8-1.3-1.2c0.2-1,0.3-2,0.4-3.1h0.1H30c1-0.1,1.9-0.5,2.7-1.2c0.2-0.3,0.4-0.6,0.6-0.9c0.3-0.8,0.5-1.6,0.4-2.5
	c0-0.1-0.1-0.1-0.2-0.1c-0.1,0-0.1,0-0.2,0.1c-1,0.9-1.9,1.8-2.7,2.8l-0.2,0.3c-0.2,0.3-0.5,0.6-0.8,0.9c0-0.6,0-1.3-0.1-1.9
	c0.7-0.4,1.4-0.9,1.9-1.5l0.2-0.2c0.9-1.1,1.5-2.4,1.7-3.9c0.2-1.4,0.8-2.7,1.7-3.8c0-0.1,0-0.2-0.1-0.2c-0.1-0.1-0.1-0.1-0.2-0.1
	c-0.4,0.2-0.8,0.5-1.2,0.7c-1.2,0.5-2.2,1.3-2.8,2.4c-0.2,0.5-0.4,1.1-0.4,1.7v0.3c-0.2,1.3-0.5,2.5-1,3.7c-0.1-0.8-0.2-1.7-0.4-2.6
	c-0.1-0.6-0.3-1.2-0.4-1.9c0.9-0.9,1.7-2.1,2.1-3.4c0.3-1.4,0.1-2.9-0.6-4.2l-0.3-0.5l-0.1,0.5c-0.1,0.3-0.1,0.5-0.2,0.7
	c-0.3,1-0.4,2-0.3,3c0,1-0.3,2.1-0.8,3c-0.4-1.5-0.9-2.9-1.5-4.3c0.5-0.8,0.9-1.6,1.2-2.5c0.2-1.1,0.4-2.2,0.4-3.3
	c0-0.7,0-1.3-0.1-2c-0.1-0.1-0.2-0.1-0.2-0.1c-0.1,0-0.2,0-0.2,0.1c-0.2,0.7-0.4,1.4-0.9,2c-0.3,0.5-0.6,1.1-0.8,1.7
	c-0.1,0.9-0.1,1.8,0,2.6c-0.7-1.6-1.6-3-2.7-4.3c-0.1-0.9-0.1-1.7,0-2.6c0.4,0.2,0.9,0.3,1.3,0.3c0.3,0,0.6-0.2,0.8-0.5
	c0.4-0.5,0.4-1.3-0.1-1.7c-0.4-0.4-0.9-0.5-1.5-0.4c-0.5,0.2-0.9,0.9-1,1.9C23.1,27,23,27.8,23,28.5L22.7,28
	c-0.8-1.2-1.4-2.2-1.9-3.1s-0.5-1.4-0.2-1.8c0.4-0.4,0.9-0.6,1.5-0.4c0.4,0.1,0.7,0.3,0.8,0.7c0.1,0.3,0,0.5-0.2,0.7
	c-0.4,0.3-0.8,0.4-1.2,0.4v0.5c0.5,0.1,1-0.1,1.4-0.4c0.4-0.3,0.7-0.8,0.5-1.3c-0.1-0.5-0.6-0.9-1.1-1c-0.7-0.2-1.5,0.1-2,0.6
	c-0.3,0.4-0.5,1.1,0.2,2.3c0.5,0.9,1.1,1.9,1.9,3.1l0.4,0.6c-0.8-0.5-1.6-1.1-2.2-1.8c-0.8-0.8-1.5-0.7-1.8-0.6
	c-0.5,0.2-0.8,0.7-0.9,1.2c-0.1,0.5,0.1,1,0.6,1.3c0.4,0.3,0.8,0.4,1.3,0.2c0.4-0.2,0.8-0.5,0.9-1L20.1,28c-0.1,0.3-0.3,0.6-0.6,0.7
	c-0.3,0.1-0.6,0-0.9-0.2c-0.3-0.2-0.4-0.5-0.3-0.8c0-0.3,0.2-0.7,0.6-0.8c0.4-0.1,0.8,0,1.3,0.5c0.9,0.9,2,1.7,3.1,2.2
	c1.6,2.1,2.8,4.3,3.6,6.8c-0.5-0.8-1.2-1.4-2.1-1.7c-1.4-0.4-4.5-1-4.7-1c-0.1,0-0.1,0.1-0.2,0.2c0,0.1,0,0.2,0,0.2
	c0,0,2.1,1.7,4,2.8c1.1,0.7,2.3,1.1,3.5,1.1c0.4,1.2,0.7,2.4,1,3.6c-0.5-0.9-1.3-1.6-2.3-2c-1.1-0.4-2.1-0.8-3.1-1.4L22.6,38
	l0.2,0.6c0.4,1.4,1.3,2.6,2.5,3.4c1,0.7,2.2,1,3.4,1.1c0.2,1.3,0.4,2.6,0.5,3.9c-0.5-0.9-1.3-1.7-2.2-2.2c-1.4-0.7-2.9-1.2-4.5-1.7
	l-0.6-0.2l0.3,0.5c0.9,1.4,2.1,2.7,3.5,3.7c1,0.6,2.2,1,3.4,1.1c0,0.9-0.1,1.8-0.3,2.7L28.8,51h-0.1h-0.1c-0.5-0.1-1,0.2-1.3,0.7
	c-0.4,0-0.8,0.2-1.1,0.6C26,52.6,26,53,26.2,53.3c-0.2,0.2-0.3,0.4-0.4,0.6c-0.1,0.4,0,0.7,0.2,1l0.1,0.1h0.1l0.5,0.2l-0.4,0.5
	l-1.1-0.9h0H25c-0.4-0.1-0.9,0-1.2,0.3c-0.5-0.1-1,0-1.3,0.4c-0.3,0.3-0.4,0.9-0.2,1.3c-0.3,0.2-0.4,0.6-0.4,0.9
	c0,0.4,0.1,0.7,0.4,0.9c0.5,0.2,1.2,0.5,1.6,0.8c-1.5,3.2-2,6.9-1.5,10.4c0.4,2.6,1.2,5.2,2.5,7.5l0.4-0.2c-1.3-2.3-2.1-4.8-2.5-7.3
	c-0.6-3.4-0.1-7,1.4-10.1l0.2,0.1c0,0.1,0.3,0.5,0.5,1c3.1,5.4,6.8,11.7,8.7,12.2c0.3,0.1,0.6,0.1,0.8,0.1c1,0,2-0.3,2.9-0.6
	c0.2,1.2,0.3,2.3,0.5,3.3c-1.2,0-4.2,0.4-4.8,4.4c-0.2,1.6-0.2,3.3,0,4.9l0.7,0.2c-0.2-1.7-0.2-3.3,0-5c0.5-3.7,3.3-3.8,4.2-3.8
	c0.4,2,0.8,3.4,1,3.9c-1.8,0.6-3.4,1.8-4.3,3.5c-0.2,0.5-0.4,0.9-0.5,1.5l0.7,0.2c0.1-0.5,0.2-0.9,0.4-1.3c0.8-1.6,2.3-2.8,4-3.2
	c1.4-0.4,2.8-0.2,4,0.6c0.1,0,0.3-0.1,0.3-0.2c0.1-0.1,0.1-0.3,0-0.4c-1.2-0.8-2.7-1-4.2-0.8c-0.8-2.6-1.3-5.3-1.7-8
	c2.4-1,4.7-2.1,7-3.3l0.6-0.3c0.1-0.1,0.1-0.3,0-0.4c-0.1-0.1-0.2-0.2-0.3-0.2l-0.6,0.3c-3.7,1.9-8.8,4.6-10.9,4
	c-1.2-0.3-4-4.3-8.3-11.8c-0.4-0.7-0.5-0.9-0.6-1c-0.7-0.5-1.5-1-2.4-1.3c0-0.1,0-0.3,0-0.4c0-0.1,0.1-0.3,0.3-0.3l0.4-0.2L23,56.7
	c-0.2-0.2-0.2-0.5,0-0.7c0.2-0.2,0.4-0.2,0.7-0.1l0.3,0.2l0.2-0.3c0.1-0.2,0.3-0.3,0.5-0.3c0.8,0.7,1.7,1.4,1.9,1.6
	c2,3.9,4.5,7.5,7.5,10.8c0.7,0.8,1.8,0.9,2.6,0.2c0,0,0.1-0.1,0.1-0.1l0,0c1.5-1.9,3.1-3.7,4.8-5.5c0-0.1,0-0.3-0.1-0.4
	C41.3,62,41.2,62,41,62c-1.7,1.8-3.4,3.6-4.9,5.6c-0.1,0-0.1,0.1-0.2,0.1c-1.5-2-2.9-4-4.2-6.2c-0.8-1.3-1.5-2.7-2.1-4.1
	c-0.2-0.6-0.5-1.1-0.9-1.6c-0.4-0.3-0.9-0.6-1.3-0.8l0,0c0.7-0.8,1.2-1.7,1.5-2.8c0.5,0.4,0.9,0.7,0.9,0.8c0,0.1,0.1,0.1,0.1,0.2
	c2.8,4.7,5,7.8,6.2,8.9c0.4,0.4,0.9,0.6,1.5,0.6c0.6,0,1.2-0.3,1.5-0.8c2.1-2.9,3.9-6,5.2-9.3l0.1-0.2l-0.2-0.2
	c-6.3-5.3-6.2-6.5-6-8.5c0-0.3,0.1-0.6,0.2-0.8l0.1-0.2l-0.1-0.2c-0.1-0.1-0.1-0.2-0.1-0.3c0-0.3,0.2-0.5,0.5-0.5c0,0,0,0,0,0
	c0.1,0,0.1,0,0.2,0l0.2,0.1l0.2-0.2c1.4-1.3,4.5-3.1,12-4.2C50.5,39,50,40,50,40c0.1,0.3,0.3,0.4,0.6,0.3c0,0,0,0,0.1,0
	c2.6-4.7,5.7-9.1,9.5-13c3.3-3.2,7-6,11.1-8.2c-1.7,4-3.9,7.8-6.6,11.3c-3.5,4.4-7.6,8.1-12.3,11.2c-0.1,0.2,0.1,0.5,0.3,0.6
	c0,0,0,0,0,0c1.2-0.8,2.4-1.6,3.5-2.5c1.2,1.9,1.7,4.1,1.5,6.2c-0.1,2.3-1.4,4.6-2.7,6.8c-0.4,0.7-0.7,1.3-1.1,1.9
	c-0.5,0.9-0.9,2-1,3.1c-0.1,1,0,1.9,0.2,2.9c0.7,3.4,1.8,6.8,3.3,9.9c2,4.3,3.4,8.8,4,13.5l0.7-0.3c-0.7-4.7-2.1-9.2-4.1-13.5
	c-1.5-3.1-2.6-6.4-3.3-9.8l0,0c-0.2-0.9-0.3-1.8-0.2-2.7c0.1-1,0.5-2,1-2.8c0.3-0.6,0.7-1.2,1-1.9c1.3-2.3,2.7-4.7,2.8-7.1
	c0.1-1.3,0-2.7-0.4-4c1.7-2.5,3.2-5.2,4.5-8l0,0c0.9-1,1.8-2,2.6-3.1c2.9-3.7,5.2-7.7,7-12C72.2,18.7,72.2,18.4,72,18.3z M30.9,41.2
	v-0.3c0-0.5,0.2-1.1,0.4-1.6c0.6-1,1.6-1.7,2.6-2.2l0.1-0.1c-0.5,0.9-0.8,2-1,3c-0.2,1.3-0.8,2.6-1.6,3.7L31.2,44
	c-0.4,0.4-0.8,0.8-1.3,1.2C30.4,43.9,30.7,42.5,30.9,41.2z M29.6,36.5c-0.1-1,0-1.9,0.3-2.9v-0.1c0.5,1,0.6,2.2,0.3,3.3
	c-0.3,0.7-0.6,1.4-1.1,2C29.4,38.1,29.6,37.3,29.6,36.5z M24.3,24.9c0.4-0.1,0.7,0,1,0.3c0.3,0.3,0.3,0.7,0,1.1
	c-0.1,0.2-0.3,0.3-0.5,0.3c-0.4,0-0.8-0.1-1.2-0.3C23.7,25.5,23.9,25,24.3,24.9z M24.2,36.6C23,35.9,21.8,35,21,34.4
	c1.1,0.2,2.8,0.5,3.6,0.8s2,1.7,2.5,2.4C26.1,37.5,25.1,37.1,24.2,36.6z M26,46.9c-1.2-0.8-2.2-1.8-3-3c1.3,0.4,2.5,0.9,3.7,1.4
	c1,0.6,1.9,1.5,2.3,2.6C28,47.8,26.9,47.5,26,46.9z M28.4,56.3c0.3,0.4,0.5,0.9,0.7,1.4c0.6,1.4,1.3,2.8,2.1,4.2
	c1.2,2.1,2.5,4.1,4,6c-0.3-0.1-0.5-0.2-0.7-0.4c-2.9-3.2-5.4-6.8-7.4-10.6c0,0-0.1-0.1-0.6-0.6l0.5-0.6C27.5,55.7,28,56,28.4,56.3
	L28.4,56.3z M27.2,54.7l-0.1,0.1l-0.7-0.3c0-0.1,0-0.3,0-0.4c0-0.2,0.2-0.3,0.3-0.3l0.5-0.2l-0.3-0.4c-0.2-0.2-0.2-0.4-0.1-0.6
	c0.1-0.2,0.4-0.3,0.6-0.2l0.4,0.1l0.1-0.4c0-0.3,0.3-0.4,0.5-0.4l0.3,0.2C28.4,52.9,27.9,53.9,27.2,54.7L27.2,54.7z M59.6,26.8
	c-1.5,1.5-2.9,3.1-4.2,4.8l-1.3-2L50.6,31c1.6-2.2,3.4-4.3,5.3-6.2c3.3-3.2,7-6,11.1-8.2c-1,2.5-2.3,4.9-3.8,7.1
	C62.1,24.6,60.8,25.6,59.6,26.8z"/>
<path class="st1" d="M88.2,44.1c0,17.5-10.7,33.2-27,39.7L60.5,84c-8.1,3-16.9,3.5-25.3,1.4l-0.7-0.2l-0.4-0.1l-0.7-0.2
	C10.8,78.2-2,54.5,4.8,31.9s30.5-35.3,53-28.6C75.8,8.7,88.1,25.3,88.2,44.1z"/>
<path class="st0" d="M102.8,59.3v8.6h-3.2V46.8h3.6c1.3,0,2.7,0.1,4,0.4c0.9,0.2,1.7,0.7,2.4,1.4c1.2,1.2,1.9,2.8,1.8,4.5
	c0.1,1.7-0.6,3.4-1.9,4.6c-1.5,1.2-3.3,1.8-5.2,1.7L102.8,59.3z M102.8,56.3h1.2c2.9,0,4.4-1.1,4.4-3.4c0-2.3-1.5-3.3-4.5-3.3h-1.1
	L102.8,56.3z"/>
<path class="st0" d="M118.8,46.8v18.1h6.2v3h-9.4V46.8H118.8z"/>
<path class="st0" d="M131.4,46.8v12.7c-0.1,1.4,0.2,2.8,0.9,4c1.6,2.1,4.6,2.4,6.7,0.8c0.3-0.2,0.6-0.5,0.8-0.8c0.7-1.2,1-2.6,0.9-4
	V46.8h3.2v13.6c0.1,2-0.7,4-2.1,5.5c-3.1,3.2-8.1,3.2-11.3,0.2c-0.1-0.1-0.1-0.1-0.2-0.2c-1.4-1.5-2.2-3.5-2.1-5.5V46.8H131.4z"/>
<path class="st0" d="M149,67.9l4.4-22.7l7.3,16.4l7.5-16.4l4,22.7h-3.3l-2-12.7l-6.2,13.7l-6.1-13.7l-2.3,12.8H149z"/>
<path class="st0" d="M177.5,67.9V46.8h3.2c1.1,0,2.3,0.1,3.4,0.3c0.8,0.2,1.5,0.6,2.1,1.1c0.6,0.6,1.1,1.2,1.4,2
	c0.3,0.8,0.5,1.6,0.5,2.5c0,1.5-0.6,2.9-1.7,3.8c1.1,0.4,2,1.1,2.6,2c1.6,2.4,1.2,5.5-0.8,7.5c-0.7,0.7-1.5,1.2-2.4,1.5
	c-1.2,0.3-2.4,0.4-3.6,0.4L177.5,67.9z M180.7,55.9h1c0.9,0.1,1.9-0.2,2.6-0.8c0.6-0.6,0.9-1.5,0.8-2.3c0.1-0.8-0.3-1.7-0.9-2.3
	c-0.7-0.6-1.6-0.8-2.5-0.8h-1.1V55.9z M180.7,64.9h2c1.1,0.1,2.2-0.2,3.2-0.8c0.7-0.6,1.1-1.4,1.1-2.3c0-0.9-0.3-1.7-1-2.3
	c-1-0.7-2.3-1-3.6-0.9h-1.7V64.9z"/>
<path class="st0" d="M207,62.8h-9l-2.4,5.1h-3.4l10.4-22.4l10,22.4h-3.5L207,62.8z M205.7,59.8l-3.1-7.2l-3.3,7.2H205.7z"/>
<path class="st0" d="M226.1,56.9h8.7v0.7c0,1.4-0.2,2.8-0.6,4.2c-0.4,1.2-1,2.3-1.8,3.2c-1.9,2.2-4.6,3.4-7.5,3.3
	c-2.9,0-5.6-1.1-7.6-3.2c-4.3-4.3-4.3-11.3,0-15.6c3.3-3.3,8.3-4.1,12.5-2.2c1.5,0.8,2.9,1.9,4,3.3l-2.3,2.2
	c-1.4-2.1-3.8-3.4-6.3-3.5c-2.1,0-4.2,0.8-5.6,2.3c-1.5,1.5-2.3,3.6-2.3,5.7c0,4.3,3.4,7.8,7.7,7.9c1.6,0,3.1-0.6,4.2-1.6
	c1.2-0.9,1.9-2.3,2.1-3.8h-5.3L226.1,56.9z"/>
<path class="st0" d="M238.6,57.2c0-2.9,1.2-5.7,3.3-7.7c2.1-2.1,4.9-3.2,7.8-3.2c6.1,0,11,4.9,11,11c0,2.9-1.1,5.7-3.2,7.7
	c-4.2,4.1-10.8,4.3-15.2,0.4C239.8,63.4,238.5,60.4,238.6,57.2z M241.8,57.2c-0.1,2.2,0.8,4.3,2.3,5.8c3,3,8,3,11,0
	c3-3.2,3-8.2,0-11.3c-3.1-3.1-8-3.1-11.1,0C242.5,53.2,241.7,55.2,241.8,57.2L241.8,57.2z"/>
<path class="st0" d="M108.2,28h-6v3.6h5.8v2.1h-5.9v5h6v2.1h-8.3v-15h8.3V28z"/>
<path class="st0" d="M120.6,28.1l-1.8,1.1c-0.2-0.5-0.6-0.9-1-1.2c-0.4-0.2-0.8-0.3-1.3-0.3c-0.6,0-1.1,0.2-1.6,0.5
	c-0.4,0.3-0.6,0.8-0.6,1.3c0,0.7,0.5,1.3,1.6,1.8l1.5,0.6c1,0.4,2,1,2.7,1.8c0.6,0.7,0.9,1.7,0.8,2.6c0,1.3-0.5,2.5-1.4,3.4
	c-0.9,0.9-2.2,1.4-3.5,1.4c-1.2,0-2.3-0.4-3.2-1.2c-0.9-0.9-1.4-2-1.6-3.3l2.3-0.5c0,0.6,0.2,1.3,0.6,1.8c0.9,1.1,2.5,1.3,3.7,0.4
	c0.1,0,0.1-0.1,0.2-0.1c0.5-0.5,0.7-1.1,0.7-1.8c0-0.3,0-0.5-0.1-0.8c-0.1-0.2-0.2-0.5-0.4-0.7c-0.2-0.2-0.4-0.4-0.7-0.6
	c-0.3-0.2-0.7-0.4-1-0.5l-1.5-0.6c-2.1-0.9-3.1-2.1-3.1-3.8c0-1.1,0.5-2.1,1.3-2.8c0.9-0.8,2-1.2,3.2-1.1
	C118.2,25.5,119.8,26.5,120.6,28.1z"/>
<path class="st0" d="M129,28v12.9h-2.3V28h-3.5v-2.1h9.2V28L129,28z"/>
<path class="st0" d="M137.6,25.8v9.1c-0.1,1,0.1,2,0.6,2.8c1.2,1.5,3.3,1.7,4.8,0.6c0.2-0.2,0.4-0.4,0.6-0.6
	c0.5-0.9,0.7-1.9,0.6-2.8v-9.1h2.3v9.7c0,1.5-0.5,2.9-1.5,3.9c-2.2,2.3-5.9,2.3-8.1,0.1c0,0,0,0-0.1-0.1c-1-1.1-1.5-2.5-1.5-3.9
	v-9.7H137.6z"/>
<path class="st0" d="M151,40.9V25.8h3.2c1.2,0,2.4,0.1,3.6,0.5c1,0.3,1.8,0.8,2.6,1.5c1.6,1.4,2.4,3.5,2.3,5.6c0.1,3.2-2,6.1-5,7.1
	c-1.2,0.3-2.3,0.5-3.5,0.4L151,40.9z M153.3,38.8h1c0.9,0,1.7-0.1,2.6-0.3c2.2-0.7,3.6-2.8,3.5-5.1c0-1.5-0.6-3-1.7-4
	c-1.2-1-2.8-1.5-4.4-1.4h-1L153.3,38.8z"/>
<path class="st0" d="M168.6,25.8v15.1h-2.3V25.8H168.6z"/>
<path class="st0" d="M172.4,33.3c0-2.1,0.8-4.1,2.3-5.5c1.5-1.5,3.5-2.3,5.6-2.3c4.3,0,7.8,3.5,7.8,7.8c0,2.1-0.8,4.1-2.3,5.5
	c-3,2.9-7.7,3-10.9,0.2C173.2,37.7,172.3,35.5,172.4,33.3z M174.6,33.3c0,1.5,0.6,3,1.7,4.1c2.2,2.2,5.7,2.2,7.9,0
	c2.2-2.3,2.2-5.8,0-8.1c-2.2-2.2-5.7-2.2-7.9,0C175.2,30.4,174.6,31.8,174.6,33.3L174.6,33.3z"/>
</svg>
